<mxfile host="65bd71144e">
    <diagram id="C5RBs43oDa-KdzZeNtuy" name="Page-1">
        <mxGraphModel dx="1660" dy="805" grid="1" gridSize="10" guides="1" tooltips="1" connect="1" arrows="1" fold="1" page="1" pageScale="1" pageWidth="827" pageHeight="1169" math="0" shadow="0">
            <root>
                <mxCell id="WIyWlLk6GJQsqaUBKTNV-0"/>
                <mxCell id="WIyWlLk6GJQsqaUBKTNV-1" parent="WIyWlLk6GJQsqaUBKTNV-0"/>
                <mxCell id="aQ3SddSiONiYCjClCBov-1" value="Datasets in cloud storage?" style="rhombus;whiteSpace=wrap;html=1;shadow=0;fontFamily=Helvetica;fontSize=12;align=center;strokeWidth=1;spacing=6;spacingTop=-4;" parent="WIyWlLk6GJQsqaUBKTNV-1" vertex="1">
                    <mxGeometry x="280" y="590" width="100" height="90" as="geometry"/>
                </mxCell>
                <mxCell id="aQ3SddSiONiYCjClCBov-2" value="Yes" style="edgeStyle=orthogonalEdgeStyle;rounded=0;html=1;jettySize=auto;orthogonalLoop=1;fontSize=11;endArrow=block;endFill=0;endSize=8;strokeWidth=1;shadow=0;labelBackgroundColor=none;exitX=0.5;exitY=1;exitDx=0;exitDy=0;entryX=0.5;entryY=0;entryDx=0;entryDy=0;" parent="WIyWlLk6GJQsqaUBKTNV-1" source="aQ3SddSiONiYCjClCBov-1" target="XQUI02GZDJZ_6EXKGFm5-0" edge="1">
                    <mxGeometry y="10" relative="1" as="geometry">
                        <mxPoint as="offset"/>
                        <mxPoint x="397" y="573" as="sourcePoint"/>
                        <mxPoint x="330" y="720" as="targetPoint"/>
                    </mxGeometry>
                </mxCell>
                <mxCell id="aQ3SddSiONiYCjClCBov-3" value="No" style="edgeStyle=orthogonalEdgeStyle;rounded=0;html=1;jettySize=auto;orthogonalLoop=1;fontSize=11;endArrow=block;endFill=0;endSize=8;strokeWidth=1;shadow=0;labelBackgroundColor=none;exitX=1;exitY=0.5;exitDx=0;exitDy=0;entryX=0;entryY=0.5;entryDx=0;entryDy=0;" parent="WIyWlLk6GJQsqaUBKTNV-1" source="aQ3SddSiONiYCjClCBov-1" target="aQ3SddSiONiYCjClCBov-4" edge="1">
                    <mxGeometry y="10" relative="1" as="geometry">
                        <mxPoint as="offset"/>
                        <mxPoint x="280" y="272" as="sourcePoint"/>
                        <mxPoint x="420" y="635" as="targetPoint"/>
                    </mxGeometry>
                </mxCell>
                <mxCell id="aQ3SddSiONiYCjClCBov-4" value="Download datasets from {BiqQuery}" style="rounded=1;whiteSpace=wrap;html=1;fontSize=12;glass=0;strokeWidth=1;shadow=0;" parent="WIyWlLk6GJQsqaUBKTNV-1" vertex="1">
                    <mxGeometry x="430" y="615" width="120" height="40" as="geometry"/>
                </mxCell>
                <mxCell id="aQ3SddSiONiYCjClCBov-5" value="Upload datasets to {S3}" style="rounded=1;whiteSpace=wrap;html=1;fontSize=12;glass=0;strokeWidth=1;shadow=0;" parent="WIyWlLk6GJQsqaUBKTNV-1" vertex="1">
                    <mxGeometry x="880" y="615" width="120" height="40" as="geometry"/>
                </mxCell>
                <mxCell id="aQ3SddSiONiYCjClCBov-6" value="How to transfer between BQ and S3?" style="rounded=1;whiteSpace=wrap;html=1;fontSize=12;glass=0;strokeWidth=1;shadow=0;fillColor=#a20025;strokeColor=#6F0000;fontColor=#ffffff;" parent="WIyWlLk6GJQsqaUBKTNV-1" vertex="1">
                    <mxGeometry x="580" y="615" width="120" height="40" as="geometry"/>
                </mxCell>
                <mxCell id="aQ3SddSiONiYCjClCBov-7" value="" style="rounded=0;html=1;jettySize=auto;orthogonalLoop=1;fontSize=11;endArrow=block;endFill=0;endSize=8;strokeWidth=1;shadow=0;labelBackgroundColor=none;edgeStyle=orthogonalEdgeStyle;exitX=1;exitY=0.5;exitDx=0;exitDy=0;entryX=0;entryY=0.5;entryDx=0;entryDy=0;" parent="WIyWlLk6GJQsqaUBKTNV-1" source="aQ3SddSiONiYCjClCBov-4" target="aQ3SddSiONiYCjClCBov-6" edge="1">
                    <mxGeometry relative="1" as="geometry">
                        <mxPoint x="230" y="130" as="sourcePoint"/>
                        <mxPoint x="230" y="180" as="targetPoint"/>
                    </mxGeometry>
                </mxCell>
                <mxCell id="aQ3SddSiONiYCjClCBov-8" value="" style="rounded=0;html=1;jettySize=auto;orthogonalLoop=1;fontSize=11;endArrow=block;endFill=0;endSize=8;strokeWidth=1;shadow=0;labelBackgroundColor=none;edgeStyle=orthogonalEdgeStyle;exitX=1;exitY=0.5;exitDx=0;exitDy=0;entryX=0;entryY=0.5;entryDx=0;entryDy=0;" parent="WIyWlLk6GJQsqaUBKTNV-1" source="aQ3SddSiONiYCjClCBov-6" target="XQUI02GZDJZ_6EXKGFm5-1" edge="1">
                    <mxGeometry relative="1" as="geometry">
                        <mxPoint x="560" y="645" as="sourcePoint"/>
                        <mxPoint x="590" y="645" as="targetPoint"/>
                    </mxGeometry>
                </mxCell>
                <mxCell id="aQ3SddSiONiYCjClCBov-9" value="" style="rounded=0;html=1;jettySize=auto;orthogonalLoop=1;fontSize=11;endArrow=block;endFill=0;endSize=8;strokeWidth=1;shadow=0;labelBackgroundColor=none;edgeStyle=orthogonalEdgeStyle;exitX=0.5;exitY=0;exitDx=0;exitDy=0;entryX=0.5;entryY=0;entryDx=0;entryDy=0;" parent="WIyWlLk6GJQsqaUBKTNV-1" source="aQ3SddSiONiYCjClCBov-5" target="aQ3SddSiONiYCjClCBov-1" edge="1">
                    <mxGeometry relative="1" as="geometry">
                        <mxPoint x="230" y="130" as="sourcePoint"/>
                        <mxPoint x="230" y="180" as="targetPoint"/>
                        <Array as="points">
                            <mxPoint x="940" y="530"/>
                            <mxPoint x="330" y="530"/>
                        </Array>
                    </mxGeometry>
                </mxCell>
                <mxCell id="XQUI02GZDJZ_6EXKGFm5-0" value="Download needed datasets locally" style="rounded=1;whiteSpace=wrap;html=1;fontSize=12;glass=0;strokeWidth=1;shadow=0;" parent="WIyWlLk6GJQsqaUBKTNV-1" vertex="1">
                    <mxGeometry x="270" y="740" width="120" height="40" as="geometry"/>
                </mxCell>
                <mxCell id="XQUI02GZDJZ_6EXKGFm5-1" value="Trim unneccesary columns?" style="rounded=1;whiteSpace=wrap;html=1;fontSize=12;glass=0;strokeWidth=1;shadow=0;fillColor=#a20025;strokeColor=#6F0000;fontColor=#ffffff;" parent="WIyWlLk6GJQsqaUBKTNV-1" vertex="1">
                    <mxGeometry x="730" y="615" width="120" height="40" as="geometry"/>
                </mxCell>
                <mxCell id="XQUI02GZDJZ_6EXKGFm5-2" value="" style="rounded=0;html=1;jettySize=auto;orthogonalLoop=1;fontSize=11;endArrow=block;endFill=0;endSize=8;strokeWidth=1;shadow=0;labelBackgroundColor=none;edgeStyle=orthogonalEdgeStyle;exitX=1;exitY=0.5;exitDx=0;exitDy=0;entryX=0;entryY=0.5;entryDx=0;entryDy=0;" parent="WIyWlLk6GJQsqaUBKTNV-1" source="XQUI02GZDJZ_6EXKGFm5-1" target="aQ3SddSiONiYCjClCBov-5" edge="1">
                    <mxGeometry relative="1" as="geometry">
                        <mxPoint x="560" y="645" as="sourcePoint"/>
                        <mxPoint x="590" y="645" as="targetPoint"/>
                    </mxGeometry>
                </mxCell>
                <mxCell id="XQUI02GZDJZ_6EXKGFm5-3" value="Run Algorithm X" style="rounded=1;whiteSpace=wrap;html=1;fontSize=12;glass=0;strokeWidth=1;shadow=0;fillColor=#60a917;strokeColor=#2D7600;fontColor=#ffffff;" parent="WIyWlLk6GJQsqaUBKTNV-1" vertex="1">
                    <mxGeometry x="130" y="615" width="120" height="40" as="geometry"/>
                </mxCell>
                <mxCell id="XQUI02GZDJZ_6EXKGFm5-4" value="" style="rounded=0;html=1;jettySize=auto;orthogonalLoop=1;fontSize=11;endArrow=block;endFill=0;endSize=8;strokeWidth=1;shadow=0;labelBackgroundColor=none;edgeStyle=orthogonalEdgeStyle;exitX=1;exitY=0.5;exitDx=0;exitDy=0;entryX=0;entryY=0.5;entryDx=0;entryDy=0;" parent="WIyWlLk6GJQsqaUBKTNV-1" source="XQUI02GZDJZ_6EXKGFm5-3" target="aQ3SddSiONiYCjClCBov-1" edge="1">
                    <mxGeometry relative="1" as="geometry">
                        <mxPoint x="560" y="645" as="sourcePoint"/>
                        <mxPoint x="590" y="645" as="targetPoint"/>
                    </mxGeometry>
                </mxCell>
                <mxCell id="XQUI02GZDJZ_6EXKGFm5-5" value="Dataset need sorting?" style="rhombus;whiteSpace=wrap;html=1;shadow=0;fontFamily=Helvetica;fontSize=12;align=center;strokeWidth=1;spacing=6;spacingTop=-4;" parent="WIyWlLk6GJQsqaUBKTNV-1" vertex="1">
                    <mxGeometry x="267.5" y="840" width="125" height="80" as="geometry"/>
                </mxCell>
                <mxCell id="XQUI02GZDJZ_6EXKGFm5-6" value="" style="rounded=0;html=1;jettySize=auto;orthogonalLoop=1;fontSize=11;endArrow=block;endFill=0;endSize=8;strokeWidth=1;shadow=0;labelBackgroundColor=none;edgeStyle=orthogonalEdgeStyle;exitX=0.5;exitY=1;exitDx=0;exitDy=0;entryX=0.5;entryY=0;entryDx=0;entryDy=0;" parent="WIyWlLk6GJQsqaUBKTNV-1" source="XQUI02GZDJZ_6EXKGFm5-0" target="XQUI02GZDJZ_6EXKGFm5-5" edge="1">
                    <mxGeometry relative="1" as="geometry">
                        <mxPoint x="560" y="645" as="sourcePoint"/>
                        <mxPoint x="590" y="645" as="targetPoint"/>
                    </mxGeometry>
                </mxCell>
                <mxCell id="XQUI02GZDJZ_6EXKGFm5-7" value="Yes" style="edgeStyle=orthogonalEdgeStyle;rounded=0;html=1;jettySize=auto;orthogonalLoop=1;fontSize=11;endArrow=block;endFill=0;endSize=8;strokeWidth=1;shadow=0;labelBackgroundColor=none;exitX=1;exitY=0.5;exitDx=0;exitDy=0;entryX=0;entryY=0.5;entryDx=0;entryDy=0;" parent="WIyWlLk6GJQsqaUBKTNV-1" source="XQUI02GZDJZ_6EXKGFm5-5" target="XQUI02GZDJZ_6EXKGFm5-8" edge="1">
                    <mxGeometry y="10" relative="1" as="geometry">
                        <mxPoint as="offset"/>
                        <mxPoint x="340" y="690" as="sourcePoint"/>
                        <mxPoint x="328" y="970" as="targetPoint"/>
                    </mxGeometry>
                </mxCell>
                <mxCell id="XQUI02GZDJZ_6EXKGFm5-8" value="Run sorting algorithm" style="rounded=1;whiteSpace=wrap;html=1;fontSize=12;glass=0;strokeWidth=1;shadow=0;" parent="WIyWlLk6GJQsqaUBKTNV-1" vertex="1">
                    <mxGeometry x="450" y="860" width="120" height="40" as="geometry"/>
                </mxCell>
                <mxCell id="XQUI02GZDJZ_6EXKGFm5-10" value="" style="rounded=0;html=1;jettySize=auto;orthogonalLoop=1;fontSize=11;endArrow=block;endFill=0;endSize=8;strokeWidth=1;shadow=0;labelBackgroundColor=none;edgeStyle=orthogonalEdgeStyle;exitX=0.5;exitY=0;exitDx=0;exitDy=0;entryX=0.5;entryY=0;entryDx=0;entryDy=0;" parent="WIyWlLk6GJQsqaUBKTNV-1" source="XQUI02GZDJZ_6EXKGFm5-8" target="XQUI02GZDJZ_6EXKGFm5-5" edge="1">
                    <mxGeometry relative="1" as="geometry">
                        <mxPoint x="860" y="645" as="sourcePoint"/>
                        <mxPoint x="890" y="645" as="targetPoint"/>
                        <Array as="points">
                            <mxPoint x="510" y="810"/>
                            <mxPoint x="330" y="810"/>
                        </Array>
                    </mxGeometry>
                </mxCell>
                <mxCell id="XQUI02GZDJZ_6EXKGFm5-11" value="No" style="edgeStyle=orthogonalEdgeStyle;rounded=0;html=1;jettySize=auto;orthogonalLoop=1;fontSize=11;endArrow=block;endFill=0;endSize=8;strokeWidth=1;shadow=0;labelBackgroundColor=none;exitX=0.5;exitY=1;exitDx=0;exitDy=0;entryX=0.5;entryY=0;entryDx=0;entryDy=0;" parent="WIyWlLk6GJQsqaUBKTNV-1" source="XQUI02GZDJZ_6EXKGFm5-5" target="XQUI02GZDJZ_6EXKGFm5-12" edge="1">
                    <mxGeometry y="10" relative="1" as="geometry">
                        <mxPoint as="offset"/>
                        <mxPoint x="390" y="645" as="sourcePoint"/>
                        <mxPoint x="330" y="970" as="targetPoint"/>
                    </mxGeometry>
                </mxCell>
                <mxCell id="XQUI02GZDJZ_6EXKGFm5-12" value="Execute Algorithm X" style="rounded=1;whiteSpace=wrap;html=1;fontSize=12;glass=0;strokeWidth=1;shadow=0;" parent="WIyWlLk6GJQsqaUBKTNV-1" vertex="1">
                    <mxGeometry x="270" y="980" width="120" height="40" as="geometry"/>
                </mxCell>
                <mxCell id="XQUI02GZDJZ_6EXKGFm5-14" value="" style="rounded=0;html=1;jettySize=auto;orthogonalLoop=1;fontSize=11;endArrow=block;endFill=0;endSize=8;strokeWidth=1;shadow=0;labelBackgroundColor=none;edgeStyle=orthogonalEdgeStyle;exitX=0.5;exitY=1;exitDx=0;exitDy=0;entryX=0.5;entryY=0;entryDx=0;entryDy=0;" parent="WIyWlLk6GJQsqaUBKTNV-1" source="XQUI02GZDJZ_6EXKGFm5-12" target="XQUI02GZDJZ_6EXKGFm5-15" edge="1">
                    <mxGeometry relative="1" as="geometry">
                        <mxPoint x="860" y="645" as="sourcePoint"/>
                        <mxPoint x="330" y="1080" as="targetPoint"/>
                    </mxGeometry>
                </mxCell>
                <mxCell id="XQUI02GZDJZ_6EXKGFm5-15" value="Upload results to SQL Table" style="rounded=1;whiteSpace=wrap;html=1;fontSize=12;glass=0;strokeWidth=1;shadow=0;" parent="WIyWlLk6GJQsqaUBKTNV-1" vertex="1">
                    <mxGeometry x="270" y="1070" width="120" height="40" as="geometry"/>
                </mxCell>
            </root>
        </mxGraphModel>
    </diagram>
</mxfile>